<svg xmlns="http://www.w3.org/2000/svg" width="190" height="82.997" viewBox="0 0 190 82.997"><defs><style>.a,.b{fill:#29d28d;}.a{font-size:58px;font-family:OpenSans-Extrabold, Open Sans;font-weight:800;letter-spacing:0.07em;}</style></defs><g transform="translate(-92.302 -363.234)"><g transform="translate(-886.198 -950.266)"><text class="a" transform="translate(978.5 1375.5)"><tspan x="0" y="0" xml:space="preserve">L   AN</tspan></text></g><path class="b" d="M1514.969-1129.609h0a6.627,6.627,0,0,1-5.088-2.372,6.582,6.582,0,0,1-1.541-3.87,24.228,24.228,0,0,0,6.639.927,24.11,24.11,0,0,0,6.614-.923,6.579,6.579,0,0,1-2.359,4.686A6.644,6.644,0,0,1,1514.969-1129.609Zm6.622-6.239h0a6.609,6.609,0,0,0-1.542-4.665,6.625,6.625,0,0,0-5.088-2.372,6.641,6.641,0,0,0-4.263,1.554,6.67,6.67,0,0,0-2.36,5.481,23.982,23.982,0,0,1-11.842-7.686,23.934,23.934,0,0,1-4.718-8.871c.128.008.264.012.4.012a6.646,6.646,0,0,0,4.264-1.553,6.646,6.646,0,0,0,.818-9.352,6.626,6.626,0,0,0-5.088-2.372c-.13,0-.263,0-.393.012a23.984,23.984,0,0,1,7.686-11.842,23.93,23.93,0,0,1,8.871-4.718,6.61,6.61,0,0,0,1.541,4.666,6.628,6.628,0,0,0,5.089,2.371,6.643,6.643,0,0,0,4.263-1.553,6.67,6.67,0,0,0,2.36-5.481,23.982,23.982,0,0,1,11.842,7.686,23.93,23.93,0,0,1,4.718,8.871c-.128-.008-.263-.012-.4-.012a6.645,6.645,0,0,0-4.265,1.554,6.594,6.594,0,0,0-2.346,4.506,6.594,6.594,0,0,0,1.528,4.845,6.628,6.628,0,0,0,5.089,2.372c.131,0,.263,0,.393-.012a23.983,23.983,0,0,1-7.686,11.842,23.933,23.933,0,0,1-8.87,4.718Zm-6.632-36.3a13.122,13.122,0,0,0-8.42,3.067,13.024,13.024,0,0,0-4.633,8.9,13.022,13.022,0,0,0,3.017,9.568,13.086,13.086,0,0,0,10.049,4.683,13.12,13.12,0,0,0,8.419-3.067,13.125,13.125,0,0,0,1.616-18.469A13.086,13.086,0,0,0,1514.959-1172.144Zm23.19,19.736h0a24.156,24.156,0,0,0,0-13.251,6.576,6.576,0,0,1,4.685,2.36,6.592,6.592,0,0,1,1.528,4.845,6.6,6.6,0,0,1-2.346,4.507,6.581,6.581,0,0,1-3.869,1.541Zm-46.37,0h0a6.575,6.575,0,0,1-4.684-2.359,6.592,6.592,0,0,1-1.528-4.845,6.592,6.592,0,0,1,2.346-4.506,6.583,6.583,0,0,1,3.871-1.542,24.156,24.156,0,0,0,0,13.251Zm29.813-29.809h0a24.227,24.227,0,0,0-6.637-.926,24.117,24.117,0,0,0-6.614.923,6.577,6.577,0,0,1,2.36-4.685,6.644,6.644,0,0,1,4.263-1.553,6.626,6.626,0,0,1,5.088,2.371,6.582,6.582,0,0,1,1.542,3.87Z" transform="translate(-89.445 -1485.481) rotate(120)"/></g></svg>